<svg version="1" xmlns="http://www.w3.org/2000/svg" width="1024" height="1024" viewBox="0 0 768.000000 768.000000"><path d="M464 14.7c-9.5 3.1-23.6 6.8-30 7.9-1.4.2-3.6.7-5 .9-5.8 1.2-7.7 1.5-15.4 2.6-4.5.6-14.2 1.2-21.6 1.4-16.3.3-24.4-.5-58-5.6-23.7-3.7-43.2-7.4-45.8-8.8-1.5-.8-2.4-.5-4.5 1.7-2.4 2.6-3.1 4.3-4.1 10.4-.7 4.2 4 10.9 26.3 37.8 5.3 6.3 10.3 12.3 11.1 13.3.8 1 2.5 3.1 3.8 4.5 10.6 12.2 28.4 44.5 35.2 63.7 3.6 10.3 8.5 29.8 9.5 37.6.4 3 1 7.2 1.4 9.4.4 2.2.6 12.1.5 22-.1 9.9-.3 43.3-.5 74.2-.2 31-.7 56.3-1 56.3-.6 0-65.3-65.2-74.4-75-22.5-24.3-36.6-49.2-39-69-.3-2.5-1-7.2-1.6-10.5-.6-3.3-1.3-7.1-1.5-8.5-.2-1.4-.6-3.4-.9-4.5-.2-1.1-.7-4.3-1-7-.4-2.8-1.1-6.8-1.5-9-.5-2.1-.9-16.7-1-32.4 0-25.6-.2-28.6-1.8-29.8-6.6-5.2-13.9-6-19.3-2.3-7.9 5.5-13 12.6-25.4 35.5-10.9 20-14.8 25.8-23.8 34.9-9.2 9.2-17.8 15.8-42.2 32.2-17.7 11.9-38.1 26.1-40.4 28-.9.8-.3 14.2.8 16.2 1.8 3.3 3.7 3.9 15.6 4.7 6.1.4 12.8.8 15 1 2.2.1 8.3.5 13.5.9 5.2.4 12 .8 15 1.1 3 .2 9.6.7 14.5 1 38.7 2.6 80.6 25 132 70.9 13.5 12 44.9 43.6 43.4 43.7-3.2.2-83.2.7-128.9.9-52 .2-52.7.2-67-4.4-22.4-7.3-46.9-21.2-70.5-40.1-5.5-4.4-10.2-8.2-10.5-8.5-.3-.3-2.7-2.5-5.5-4.9-2.7-2.4-7.2-6.5-10-9-7-6.5-17.6-15.5-20.3-17.3-3.2-2.2-10.7-.7-14.4 2.9-3.3 3.2-3.5 6.4-1.2 19.8.8 4.9 1.7 10.1 1.9 11.5.2 1.4 1.7 10.4 3.4 20 1.6 9.6 3.2 19.3 3.6 21.5.3 2.2.8 5.3 1.1 7 3.3 18.3 3 23.3-4.1 55-5.5 25-7.6 36.7-7.7 44.7-.3 15 4.6 22.8 14.3 22.8 4.9 0 5.1-.1 13.2-8.1 27.1-26.7 51.7-44.9 79.2-58.4 15.1-7.4 38.1-15.8 46.5-17 2.4-.4 4.7-.8 5-1 .3-.2 2.6-.6 5-1 2.5-.4 6.5-1 9-1.5s29.3-.6 59.5-.3c30.3.3 65.5.6 78.3.7l23.3.1-7.3 7c-7.4 7-32.4 30.7-40.8 38.5-2.5 2.4-9.5 8.9-15.6 14.6-25.2 23.7-47.2 38.5-68.1 45.8-14 4.9-47.9 11.5-71.8 14-8.3.9-23.7 1.8-34.1 2.1-5.5.2-10.4.3-10.9.4-1.6.2-4.3 5.3-4.8 9.1-1 8.7 6.3 18.4 19.3 25.7 4.5 2.6 21.5 11.9 29.3 16.2 7.9 4.3 16.8 11.6 28.4 23.3 11.9 11.9 15.1 16.2 25.9 34.9 20.8 36.1 29.5 45.2 40.8 42.7 5.9-1.3 8.6-3.4 8.7-6.6.3-7.8.7-16.3 1.3-30.7 1.8-40.6 2.1-43.1 5.3-56.5.8-3.6 1.6-7 1.7-7.5 1.9-8.5 9.1-29.6 12.6-36.6 8.5-16.9 23.1-35.8 43.1-55.8 5.7-5.6 34.3-33 40.9-39.1 1.9-1.7 6.5-6.1 10.2-9.6 3.7-3.5 7.2-6.5 7.9-6.6.9-.2 1.2 14.6 1.5 62.2.2 34.4.6 100.5.8 147 .3 46.5.5 91.5.5 100l.1 15.5 2.8 1.2c9.2 4 14 4.5 19.3 1.8 4-2 7.9-6.1 7.9-8.4 0-.9.1-73.5.1-161.4V425l8.6 8.2c4.7 4.6 11.6 11.2 15.3 14.8 3.7 3.6 16.5 15.9 28.5 27.5 12 11.5 24.8 23.9 28.5 27.5 3.7 3.6 16.3 15.7 28 27s24.2 23.4 27.9 26.9c11.5 11.1 53 51.1 66.6 64.2 27.9 27.2 29.9 28.9 32.2 28.4 4.2-.7 9-3.6 10.4-6.2 1.8-3.4 1.7-13.3-.2-16-.8-1.1-20.8-21.8-44.6-45.9-23.7-24.2-48.1-49.1-54.3-55.4-11-11.3-101.7-103.3-116.4-118.1-4.2-4.2-7.6-7.8-7.6-8 0-.2 39.7-.6 88.3-.7 74.9-.3 197.3-.9 229.5-1.1l9.2-.1 3-4.7c4.7-7.4 3.5-15.6-3.3-23.5l-2.4-2.8-161.1-.2-161.1-.3 72.7-73c40-40.2 82.2-82.3 93.7-93.6 41.7-40.8 57.4-59.8 56.1-67.7-.2-1.5-.5-3.4-.5-4.3-.2-2.6-3.9-5.8-8.2-6.9-5.7-1.6-5.6-1.6-32.9 23.9-10.9 10.2-20.7 19.6-45.5 43.6-11.7 11.3-104 102.3-130.9 128.9-14.7 14.7-27.1 26.5-27.3 26.2-.6-.6-1.5-78.8-1.6-140.6l-.1-39.5 2.7-9c8.8-28.8 21.4-53 39.7-75.8 4.3-5.4 10.7-12.4 21.1-23.2 19.6-20.2 21.9-23 21.9-26.7 0-3.9-5.6-14.1-8.7-15.9-2.7-1.5-3.4-1.4-13.3 1.8zM416 60c0 1.1-12 24.1-17.7 34-3.1 5.2-6.4 11.1-7.5 13-3.4 6.1-7.3 12-7.8 12-.3 0-3.6-6-7.3-13.3-3.7-7.2-7.2-13.9-7.7-14.7-.5-.8-3.4-5.6-6.4-10.6-3-5-7.5-11.7-9.9-15l-4.4-6h34.3c18.9-.1 34.4.2 34.4.6zM221.1 195.5c3.6 15.6 8 31.2 10.3 36.7.8 1.8.2 1.7-15.9-3.2-6.3-1.9-32.9-8.8-36.5-9.5-.8-.1-3.4-.6-5.7-1-2.4-.4-4.3-1-4.3-1.3 0-.4 3.9-4.4 8.8-9 4.8-4.6 15.2-14.7 23.1-22.5l14.5-14.2.7 3c.4 1.6 2.7 11.1 5 21zM70 358c.3.3 2.1 1.3 4 2.4 19.7 10.4 43 23.7 43 24.6 0 .3-5.1 3.2-11.2 6.5-10 5.2-33.5 18.2-44.1 24.3-2.1 1.2-3.9 2.2-4.1 2.2-.1 0-.3-15-.2-33.4v-33.4l6 3.1c3.4 1.8 6.3 3.4 6.6 3.7zm161.4 178.2c-.8 2.6-7.3 25.4-8 28-.2 1-.6 2.6-.8 3.5-.2 1-1.5 6.5-2.9 12.3-1.4 5.8-2.9 12.2-3.2 14.2-.5 2.7-1.1 3.6-2 3-2.5-1.4-38.8-36.3-44.8-43-1.8-2-1.8-2 4-2.1 7.1-.1 11.8-.7 19.8-2.8 7.6-1.9 24.3-8.4 31.5-12.2 6.7-3.6 7.3-3.7 6.4-.9z"/></svg>